<?xml version="1.0" standalone="no"?>
<!DOCTYPE svg PUBLIC "-//W3C//DTD SVG 20010904//EN"
 "http://www.w3.org/TR/2001/REC-SVG-20010904/DTD/svg10.dtd">
<svg version="1.0" xmlns="http://www.w3.org/2000/svg"
 width="16.000000pt" height="16.000000pt" viewBox="0 0 16.000000 16.000000"
 preserveAspectRatio="xMidYMid meet">
<metadata>
Created by potrace 1.11, written by Peter Selinger 2001-2013
</metadata>
<g transform="translate(0.000000,16.000000) scale(0.001159,-0.001159)"
fill="#000000" stroke="none">
<path d="M395 13790 c-84 -24 -110 -36 -161 -71 -104 -71 -178 -177 -211 -300
-15 -60 -16 -505 -17 -6484 -1 -3531 3 -6447 7 -6480 14 -102 64 -209 136
-288 61 -67 195 -137 286 -151 22 -3 2937 -6 6479 -6 5812 0 6444 2 6499 16
179 46 315 175 370 349 l21 70 0 6470 0 6470 -21 60 c-12 33 -34 83 -49 110
-61 108 -202 211 -331 241 -44 10 -1341 12 -6501 12 -6110 0 -6450 -1 -6507
-18z"/>
</g>
</svg>
